<?xml version="1.0" encoding="utf-8"?>
<!-- Uploaded to: SVG Repo, www.svgrepo.com, Generator: SVG Repo Mixer Tools -->
<svg version="1.1" id="Uploaded to svgrepo.com" xmlns="http://www.w3.org/2000/svg" xmlns:xlink="http://www.w3.org/1999/xlink" 
	 width="800px" height="800px" viewBox="0 0 32 32" xml:space="preserve">
<style type="text/css">
	.pictogram_een{fill:#F4D6B0;}
	.pictogram_twee{fill:#F8AD89;}
	.pictogram_drie{fill:#F27261;}
	.pictogram_vier{fill:#E54D2E;}
	.pictogram_vijf{fill:#01A59C;}
	.pictogram_zes{fill:#0C6667;}
	.st0{fill:none;}
	.st1{fill:#0C6667;}
</style>
<g>
	<path class="pictogram_een" d="M32,29c0,1.65-1.35,3-3,3H3c-1.65,0-3-1.35-3-3V3c0-1.65,1.35-3,3-3h26c1.65,0,3,1.35,3,3V29z"/>
	<path class="pictogram_twee" d="M3,0C1.35,0,0,1.35,0,3v26c0,1.65,1.35,3,3,3h13V0H3z"/>
	<path class="pictogram_vier" d="M30.626,27.852c-0.011-0.052-0.021-0.104-0.038-0.154C30.605,27.749,30.615,27.8,30.626,27.852z
		 M28.991,26.388c0.516,0.276,0.809,0.418,0.825,0.426c0.334,0.161,0.575,0.432,0.714,0.746c-0.016-0.036-0.026-0.073-0.045-0.109
		c0,0-0.177-0.327-0.526-0.915c-0.426-0.713-1.348-0.945-2.057-0.521c-0.206,0.122-0.366,0.289-0.488,0.478
		C27.865,26.174,28.472,26.11,28.991,26.388z M5.016,2.147C4.714,1.984,4.41,1.824,4.104,1.667C3.841,1.531,3.557,1.484,3.282,1.509
		c0.501,0.039,0.971,0.324,1.219,0.804c0.148,0.289,0.3,0.575,0.453,0.858c0.314,0.58,0.201,1.27-0.223,1.728
		c0.367-0.11,0.695-0.356,0.892-0.72C6.017,3.451,5.744,2.541,5.016,2.147z"/>
	<g>
		<g>
			<circle class="pictogram_vijf" cx="16" cy="16" r="13"/>
		</g>
		<g>
			<circle class="pictogram_vijf" cx="16" cy="16" r="13"/>
		</g>
	</g>
	<path class="pictogram_zes" d="M28.744,18.569c-0.849,4.232-3.752,7.72-7.626,9.381h-0.438c0,0.059-0.014,0.115-0.017,0.173
		C19.213,28.682,17.645,29,16,29c-1.493,0-2.922-0.264-4.257-0.728c-0.012-0.107-0.032-0.211-0.032-0.322
		c0-0.177,0.02-0.348,0.052-0.515h-0.155c-1.537,0-2.783-1.246-2.783-2.783c0-1.537,1.246-2.784,2.783-2.784h3.402
		c0.112,0,0.218,0.02,0.327,0.033c0.355-1.166,1.142-2.13,2.186-2.716c-0.155-0.346-0.245-0.727-0.245-1.131
		c0-1.537,1.246-2.784,2.783-2.784h3.402c1.537,0,2.784,1.246,2.784,2.784c0,0.177-0.02,0.348-0.052,0.515H28.744z M4.423,10.106
		c0.428,0.277,0.936,0.441,1.484,0.441H6.06c-0.031,0.165-0.051,0.334-0.051,0.508c0,1.514,1.228,2.742,2.742,2.742h3.352
		c1.514,0,2.742-1.228,2.742-2.742s-1.228-2.742-2.742-2.742h-0.153C11.98,8.148,12,7.98,12,7.806c0-1.514-1.228-2.742-2.742-2.742
		H8.99C7.054,6.307,5.474,8.046,4.423,10.106z"/>
	<path class="pictogram_drie" d="M29.165,29.666c-0.218,0-0.438-0.047-0.647-0.147c0,0-0.338-0.162-0.944-0.487
		c-0.729-0.391-1.005-1.3-0.613-2.03s1.301-1.005,2.031-0.613c0.516,0.276,0.809,0.418,0.825,0.426c0.746,0.359,1.06,1.254,0.702,2
		C30.26,29.353,29.724,29.666,29.165,29.666z M24.838,25.713c0.458-0.69,0.27-1.621-0.421-2.079c-0.473-0.313-0.967-0.65-1.48-1.008
		c-0.683-0.476-1.615-0.31-2.09,0.369c-0.475,0.679-0.31,1.614,0.369,2.089c0.534,0.374,1.05,0.724,1.542,1.05
		c0.255,0.169,0.543,0.25,0.828,0.25C24.072,26.384,24.55,26.148,24.838,25.713z M18.871,21.491
		c0.527-0.639,0.437-1.584-0.203-2.112c-0.449-0.371-0.905-0.756-1.363-1.155c-0.625-0.545-1.574-0.479-2.116,0.146
		c-0.544,0.625-0.479,1.572,0.146,2.116c0.479,0.417,0.955,0.819,1.426,1.207c0.279,0.23,0.617,0.343,0.953,0.343
		C18.146,22.037,18.574,21.851,18.871,21.491z M13.382,16.664c0.595-0.576,0.61-1.526,0.033-2.121
		c-0.408-0.422-0.816-0.856-1.223-1.3c-0.559-0.612-1.509-0.653-2.119-0.095c-0.611,0.559-0.654,1.508-0.096,2.119
		c0.426,0.466,0.854,0.92,1.283,1.363c0.294,0.304,0.686,0.457,1.077,0.457C12.714,17.086,13.09,16.946,13.382,16.664z
		 M8.487,11.235c0.663-0.497,0.798-1.437,0.302-2.1c-0.353-0.47-0.699-0.95-1.04-1.439c-0.474-0.68-1.408-0.846-2.088-0.375
		C4.98,7.795,4.813,8.73,5.286,9.41c0.36,0.519,0.729,1.026,1.101,1.524c0.295,0.394,0.746,0.601,1.202,0.601
		C7.901,11.535,8.217,11.438,8.487,11.235z M4.349,5.205c0.729-0.394,1-1.304,0.605-2.033c-0.153-0.283-0.305-0.57-0.453-0.858
		C4.121,1.577,3.218,1.288,2.48,1.667C1.744,2.045,1.454,2.95,1.833,3.687C1.991,3.994,2.152,4.298,2.315,4.6
		c0.271,0.501,0.787,0.787,1.32,0.787C3.877,5.386,4.121,5.328,4.349,5.205z"/>
</g>
</svg>